<svg xmlns="http://www.w3.org/2000/svg" viewBox="0 0 512 512">
  <!-- Background circle -->
  <circle cx="256" cy="256" r="256" fill="#6c63ff"/>

  <!-- Torso / skin -->
  <ellipse cx="256" cy="370" rx="90" ry="75" fill="#c68642"/>

  <!-- Abs (6-pack) -->
  <rect x="228" y="330" width="22" height="18" rx="5" fill="#b5752e" opacity="0.6"/>
  <rect x="262" y="330" width="22" height="18" rx="5" fill="#b5752e" opacity="0.6"/>
  <rect x="228" y="354" width="22" height="18" rx="5" fill="#b5752e" opacity="0.6"/>
  <rect x="262" y="354" width="22" height="18" rx="5" fill="#b5752e" opacity="0.6"/>
  <rect x="228" y="378" width="22" height="18" rx="5" fill="#b5752e" opacity="0.6"/>
  <rect x="262" y="378" width="22" height="18" rx="5" fill="#b5752e" opacity="0.6"/>

  <!-- Neck -->
  <rect x="234" y="295" width="44" height="40" rx="8" fill="#c68642"/>

  <!-- Head -->
  <ellipse cx="256" cy="255" rx="80" ry="85" fill="#c68642"/>

  <!-- Ears -->
  <ellipse cx="178" cy="260" rx="14" ry="18" fill="#c68642"/>
  <ellipse cx="334" cy="260" rx="14" ry="18" fill="#c68642"/>

  <!-- Eyes -->
  <ellipse cx="228" cy="248" rx="12" ry="13" fill="white"/>
  <ellipse cx="284" cy="248" rx="12" ry="13" fill="white"/>
  <circle cx="231" cy="250" r="7" fill="#3d2b1f"/>
  <circle cx="287" cy="250" r="7" fill="#3d2b1f"/>
  <circle cx="233" cy="247" r="2.5" fill="white"/>
  <circle cx="289" cy="247" r="2.5" fill="white"/>

  <!-- Eyebrows -->
  <path d="M216 232 Q228 225 242 230" stroke="#3d2b1f" stroke-width="4" fill="none" stroke-linecap="round"/>
  <path d="M270 230 Q284 225 296 232" stroke="#3d2b1f" stroke-width="4" fill="none" stroke-linecap="round"/>

  <!-- Nose -->
  <ellipse cx="256" cy="268" rx="8" ry="6" fill="#b5752e"/>

  <!-- Smile -->
  <path d="M232 285 Q256 305 280 285" stroke="#3d2b1f" stroke-width="4" fill="none" stroke-linecap="round"/>

  <!-- Beard -->
  <path d="M210 278 Q215 310 256 318 Q297 310 302 278 Q280 295 256 297 Q232 295 210 278Z" fill="#2c1810" opacity="0.75"/>

  <!-- Curly hair -->
  <circle cx="185" cy="210" r="28" fill="#1a0f0a"/>
  <circle cx="210" cy="185" r="26" fill="#1a0f0a"/>
  <circle cx="240" cy="173" r="27" fill="#1a0f0a"/>
  <circle cx="272" cy="173" r="27" fill="#1a0f0a"/>
  <circle cx="302" cy="185" r="26" fill="#1a0f0a"/>
  <circle cx="325" cy="210" r="28" fill="#1a0f0a"/>
  <circle cx="196" cy="230" r="22" fill="#1a0f0a"/>
  <circle cx="316" cy="230" r="22" fill="#1a0f0a"/>
  <circle cx="256" cy="168" r="26" fill="#1a0f0a"/>
  <circle cx="222" cy="178" r="20" fill="#221410"/>
  <circle cx="290" cy="178" r="20" fill="#221410"/>
</svg>
